<?xml version="1.0" encoding="UTF-8"?>
<svg width="253px" height="461px" viewBox="0 0 253 461" version="1.1" xmlns="http://www.w3.org/2000/svg" xmlns:xlink="http://www.w3.org/1999/xlink">
    <!-- Generator: Sketch 53.2 (72643) - https://sketchapp.com -->
    <title>digitalocean</title>
    <desc>Created with Sketch.</desc>
    <g id="页面-1" stroke="none" stroke-width="1" fill="none" fill-rule="evenodd">
        <g id="digitalocean">
            <rect id="矩形" fill="#FFFFFF" fill-rule="nonzero" x="0" y="0" width="253" height="461" rx="5"></rect>
            <rect id="矩形" stroke-opacity="0.2" stroke="#ADBACC" stroke-width="2" x="26" y="312" width="30" height="8" rx="1"></rect>
            <rect id="矩形" stroke-opacity="0.15" stroke="#ADBACC" stroke-width="2" x="1" y="1" width="251" height="459" rx="4"></rect>
            <rect id="矩形" fill-opacity="0.2" fill="#ADBACC" fill-rule="nonzero" x="16" y="70" width="197" height="5" rx="1"></rect>
            <rect id="矩形" stroke="#66B1FF" stroke-width="2" x="17" y="122" width="219" height="31" rx="4"></rect>
            <rect id="矩形" fill-opacity="0.2" fill="#ADBACC" fill-rule="nonzero" x="16" y="83" width="124" height="5" rx="1"></rect>
            <rect id="矩形" fill-opacity="0.2" fill="#ADBACC" fill-rule="nonzero" x="31" y="136" width="60" height="3" rx="1"></rect>
            <rect id="矩形" stroke-opacity="0.5" stroke="#ADBACC" stroke-width="2" x="17" y="169" width="219" height="31" rx="4"></rect>
            <rect id="矩形" stroke-opacity="0.2" stroke="#ADBACC" stroke-width="2" x="17" y="282" width="219" height="162" rx="4"></rect>
            <rect id="矩形" fill="#12CD72" fill-rule="nonzero" x="16" y="215" width="221" height="33" rx="4"></rect>
            <rect id="矩形" fill-opacity="0.2" fill="#ADBACC" fill-rule="nonzero" x="31" y="183" width="60" height="3" rx="1"></rect>
            <rect id="矩形" fill-opacity="0.8" fill="#BBFFEA" fill-rule="nonzero" x="97" y="230" width="59" height="3" rx="1"></rect>
            <path d="M213,20 L233,20 L233,22 L213,22 L213,20 Z M213,25 L233,25 L233,27 L213,27 L213,25 Z M213,30 L233,30 L233,32 L213,32 L213,30 Z" id="形状" fill="#0080FF" fill-rule="nonzero"></path>
            <circle id="椭圆形" fill="#E54B14" fill-rule="nonzero" cx="27.5" cy="292.5" r="2.5"></circle>
            <circle id="椭圆形" fill="#E5D916" fill-rule="nonzero" cx="36.5" cy="292.5" r="2.5"></circle>
            <circle id="椭圆形" fill="#15D85F" fill-rule="nonzero" cx="45.5" cy="292.5" r="2.5"></circle>
            <polygon id="路径" fill="#EFF1F5" fill-rule="nonzero" points="18 302 235 302 235 304 18 304"></polygon>
            <rect id="矩形" fill-opacity="0.2" fill="#ADBACC" fill-rule="nonzero" x="59" y="311" width="32" height="10" rx="1"></rect>
            <rect id="矩形" fill-opacity="0.2" fill="#ADBACC" fill-rule="nonzero" x="93" y="311" width="32" height="10" rx="1"></rect>
            <polygon id="路径" fill="#2A8CE8" fill-rule="nonzero" points="25 311 57 311 57 313 25 313"></polygon>
            <rect id="矩形" fill="#2A8CE8" fill-rule="nonzero" x="25" y="328" width="63" height="50" rx="2"></rect>
            <rect id="矩形" stroke-opacity="0.2" stroke="#ADBACC" stroke-width="2" x="96" y="329" width="61" height="48" rx="1"></rect>
            <rect id="矩形" stroke-opacity="0.2" stroke="#ADBACC" stroke-width="2" x="166" y="329" width="61" height="48" rx="1"></rect>
            <rect id="矩形" fill="#2A8CE8" fill-rule="nonzero" x="95" y="385" width="63" height="50" rx="2"></rect>
            <rect id="矩形" stroke-opacity="0.2" stroke="#ADBACC" stroke-width="2" x="166" y="386" width="61" height="48" rx="1"></rect>
            <rect id="矩形" stroke-opacity="0.2" stroke="#ADBACC" stroke-width="2" x="26" y="386" width="61" height="48" rx="1"></rect>
            <path d="M196.5,408.76 L192.62,404.88 L196.5,401 L200.38,404.88 L196.5,408.76 Z M191.88,413.38 L188,409.5 L191.88,405.62 L195.76,409.5 L191.88,413.38 Z M196.48,418 L192.62,414.13 L196.49,410.26 L200.35,414.13 L196.48,418 Z M201.12,413.38 L197.24,409.5 L201.12,405.62 L205,409.5 L201.12,413.38 Z M196.47,344.04 C191.8,344.04 188.01,347.84 188.01,352.5 L188.03,352.76 L188.03,360.16 C188.03,360.6 188.38,360.96 188.83,360.96 L196.46,360.96 C201.14,360.96 204.93,357.16 204.93,352.5 C204.93,347.83 201.13,344.04 196.47,344.04 Z" id="形状" fill="#E6EAEF" fill-rule="nonzero"></path>
            <path d="M191.63,357.3 C191.26,356.95 191.05,356.45 191.05,355.9 C191.05,354.8 191.95,353.9 193.03,353.9 L193.05,353.9 L193.85,353.92 C193.33,353.88 192.95,353.48 192.95,352.95 C192.95,352.42 193.37,352.03 193.87,352 L192.8,352.04 C189.62,352.18 188.06,355.86 190.2,358.51 C190.1,358.38 190.04,358.23 190.03,358.06 C189.99,357.53 190.48,357.06 190.93,357.04 C191.19,357.02 191.45,357.14 191.63,357.32 L191.63,357.3 Z M198.55,352.08 C198.42,352.01 198.27,351.98 198.11,351.98 L198.95,351.98 C200.05,351.98 200.95,351.08 200.95,349.98 C200.95,349.4 200.68,348.88 200.28,348.51 C200.32,348.56 200.38,348.61 200.43,348.64 L200.35,348.57 C200,348.23 199.51,348.02 198.98,348.02 C197.88,348.02 196.98,348.92 196.98,350.02 L196.98,351.82 C196.98,351.92 197.08,352 197.18,352 L198.12,352 C198.29,352 198.44,352.04 198.57,352.1 L198.55,352.08 Z M198.23,353.88 C198.5,353.86 198.8,353.85 199.03,353.86 C201.2,353.86 202.86,352.16 202.86,349.99 C202.86,348.96 202.46,348.03 201.82,347.33 C201.92,347.48 201.98,347.67 201.98,347.86 C201.98,347.93 201.98,347.99 201.96,348.06 L201.98,347.86 C201.98,347.6 201.88,347.36 201.7,347.19 C201,346.51 200.04,346.09 198.98,346.09 C196.82,346.09 195.08,347.83 195.08,349.99 L195.08,351.99 L193.9,351.99 C193.4,351.99 192.94,352.42 192.94,352.95 C192.94,353.48 193.36,353.91 193.88,353.91 L194.85,353.91 C194.95,353.91 195.05,353.99 195.05,354.11 L195.05,355.89 C195.05,356.99 194.15,357.89 193.05,357.89 C192.52,357.89 192.03,357.67 191.65,357.31 C191.48,357.13 191.25,357.01 190.98,357.01 C190.45,357.01 190.03,357.45 190.03,357.97 C190.03,358.24 190.13,358.47 190.33,358.67 C191.06,359.37 192.03,359.81 193.08,359.8 C195.1,359.78 196.88,358.16 196.98,356.12 L196.98,355.9 L196.98,353.9 L198.11,353.87 L198.24,353.87 L198.23,353.88 Z" id="形状" fill="#FFFFFF" fill-rule="nonzero"></path>
            <path d="M134.83,344.26 C135.61,345.04 133.43,348.48 133.08,348.86 C132.71,349.22 131.78,348.88 130.98,348.1 C130.21,347.32 129.88,346.38 130.24,346.02 C130.61,345.65 134.04,343.48 134.84,344.26 L134.83,344.26 Z M121.95,345.16 C120.65,344.43 118.79,343.61 118.2,344.2 C117.6,344.8 118.46,346.7 119.2,348 C119.87,346.84 120.8,345.87 121.95,345.17 L121.95,345.16 Z M133.43,349.26 C133.56,349.69 133.53,350.04 133.33,350.26 C132.85,350.73 131.55,350.22 130.38,349.1 L130.14,348.88 C129.72,348.45 129.39,348 129.18,347.58 C128.78,346.85 128.68,346.21 128.98,345.9 C129.15,345.73 129.42,345.68 129.75,345.74 C129.95,345.61 130.21,345.44 130.49,345.3 C129.35,344.7 128.07,344.38 126.71,344.38 C122.19,344.38 118.53,348.04 118.53,352.56 C118.53,357.08 122.19,360.74 126.71,360.74 C131.21,360.74 134.89,357.08 134.89,352.56 C134.89,351.1 134.49,349.73 133.83,348.54 L133.43,349.26 L133.43,349.26 Z" id="形状" fill="#E6EAEF" fill-rule="nonzero"></path>
            <path d="M61.8,408.76 C61.8,409.26 61.65,409.51 61.5,409.94 L61.23,410.08 C61.01,410.51 61.25,410.35 61.09,410.68 C60.74,411 60.04,411.65 59.81,411.71 C59.65,411.71 59.91,411.53 59.96,411.45 C59.5,411.77 59.59,411.93 58.89,412.12 L58.86,412.08 C57.13,412.9 54.71,411.28 54.76,409.08 C54.73,409.21 54.69,409.18 54.66,409.23 C54.56,408.1 55.18,406.96 56.22,406.5 C57.22,406 58.42,406.2 59.15,406.88 C58.75,406.35 57.95,405.8 57.01,405.85 C56.09,405.87 55.23,406.45 54.94,407.09 C54.47,407.39 54.41,408.24 54.21,408.39 C53.93,410.43 54.73,411.31 56.08,412.34 C56.28,412.49 56.13,412.51 56.16,412.62 C55.71,412.42 55.3,412.1 54.96,411.72 C55.14,411.97 55.33,412.22 55.58,412.42 C55.16,412.28 54.58,411.4 54.43,411.37 C55.16,412.67 57.39,413.65 58.55,413.17 C58.01,413.19 57.33,413.17 56.72,412.95 C56.47,412.83 56.12,412.55 56.18,412.51 C57.78,413.11 59.42,412.96 60.8,411.86 C61.15,411.59 61.53,411.13 61.64,411.12 C61.47,411.37 61.67,411.24 61.54,411.46 C61.89,410.9 61.39,411.23 61.9,410.49 L62.1,410.75 C62.02,410.27 62.67,409.71 62.6,408.97 C62.75,408.74 62.77,409.21 62.6,409.73 C62.83,409.15 62.67,409.06 62.73,408.58 C62.79,408.74 62.87,408.92 62.91,409.08 C62.77,408.53 63.06,408.14 63.13,407.82 C63.06,407.79 62.91,408.07 62.87,407.42 C62.87,407.12 62.94,407.26 62.97,407.19 C62.91,407.16 62.77,406.94 62.67,406.52 C62.74,406.42 62.85,406.77 62.94,406.79 C62.88,406.45 62.79,406.19 62.78,405.94 C62.53,405.39 62.7,406 62.48,405.7 C62.22,404.84 62.72,405.5 62.75,405.1 C63.17,405.7 63.41,406.65 63.52,407.04 C63.42,406.56 63.3,406.11 63.12,405.66 C63.26,405.72 62.92,404.69 63.3,405.36 C62.9,403.92 61.6,402.56 60.43,401.93 C60.57,402.06 60.76,402.23 60.69,402.25 C60.11,401.9 60.21,401.87 60.13,401.72 C59.65,401.52 59.63,401.72 59.3,401.72 C58.4,401.22 58.22,401.28 57.4,400.98 L57.43,401.16 C56.83,400.96 56.73,401.24 56.08,401.16 C56.04,401.13 56.28,401.06 56.48,401.02 C55.91,401.1 55.94,400.9 55.38,401.04 C55.51,400.94 55.66,400.88 55.81,400.79 C55.34,400.82 54.69,401.07 54.89,400.84 C54.12,401.19 52.74,401.67 51.97,402.39 L51.95,402.23 C51.6,402.67 50.41,403.51 50.32,404.06 L50.22,404.08 C50.05,404.38 49.92,404.74 49.78,405.06 C49.54,405.46 49.43,405.22 49.48,405.28 C48.98,406.24 48.76,407.05 48.56,407.71 C48.7,407.91 48.56,409.01 48.61,409.87 C48.37,414.17 51.61,418.32 55.16,419.27 C55.68,419.47 56.46,419.45 57.11,419.47 C56.33,419.25 56.23,419.37 55.47,419.09 C54.93,418.84 54.81,418.54 54.42,418.21 L54.59,418.48 C53.83,418.21 54.15,418.15 53.53,417.95 L53.7,417.75 C53.46,417.72 53.05,417.32 52.94,417.11 L52.68,417.11 C52.36,416.71 52.18,416.43 52.2,416.21 L52.12,416.36 C52.02,416.2 50.92,414.86 51.49,415.18 C51.39,415.08 51.25,415.02 51.09,414.75 L51.21,414.62 C50.94,414.26 50.71,413.82 50.73,413.66 C50.87,413.86 50.97,413.89 51.07,413.93 C50.37,412.23 50.34,413.83 49.82,412.2 L49.92,412.2 C49.84,412.07 49.79,411.93 49.72,411.8 L49.77,411.32 C49.27,410.74 49.63,408.88 49.7,407.86 C49.75,407.46 50.1,407.01 50.4,406.31 L50.22,406.28 C50.54,405.71 52.06,404.02 52.76,404.11 C53.1,403.68 52.69,404.11 52.62,404.01 C53.37,403.23 53.6,403.46 54.12,403.31 C54.65,402.99 53.64,403.44 53.9,403.19 C54.84,402.95 54.56,402.65 55.8,402.53 C55.92,402.6 55.5,402.63 55.38,402.73 C56.16,402.35 57.86,402.43 58.96,402.95 C60.23,403.55 61.66,405.31 61.72,406.97 L61.79,406.97 C61.75,407.64 61.89,408.4 61.66,409.11 L61.81,408.77" id="路径" stroke="#E6EAEF" fill="#E6EAEF" fill-rule="nonzero"></path>
            <text id="easysign" font-family="ArialRoundedMTBold, Arial Rounded MT Bold" font-size="18" font-weight="normal" letter-spacing="-1.78412068" fill="#0080FF">
                <tspan x="43" y="31">easysign</tspan>
            </text>
            <path d="M34.2763414,29.0173377 L31.315124,27.027428 L30.7635311,27.32 L30.5880085,27.2269201 L27.3542125,29.4 L22,26.5861948 L25.701425,24.2 L22,21.8138052 L27.3542125,19 L31.1,21.5162176 L34.8457875,19 L40.2,21.8138052 L36.498575,24.2 L40.2,26.5861948 L34.8833312,29.3802696 L35.2140814,29.578032 L36.8296296,28.8184897 L36.8296296,29.6702975 L31.4376087,32 L26.0444444,29.6702975 L26.0444444,28.8184897 L27.661136,29.578032 L31.4376087,27.32 L34.2763414,29.0173377 Z M31.315124,27.027428 L36.1555556,24.46 L30.7635311,21.6 L25.3703704,24.46 L30.5880085,27.2269201 L31.1,26.8828667 L31.315124,27.027428 Z" id="合并形状" fill="#0080FF"></path>
            <g id="ios-cog" transform="translate(47.000000, 342.000000)" fill="#FFFFFF" fill-rule="nonzero">
                <path d="M20.6316675,9.80041178 L19.3147525,9.58593948 C19.1381547,9.55530058 19.0069678,9.41742553 18.9817395,9.23869861 C18.9565113,9.07529114 18.931283,8.91188368 18.8959635,8.75358269 C18.8606439,8.57996226 18.9413743,8.40123534 19.0927439,8.31442512 L20.2582893,7.66079525 C20.4399327,7.56887855 20.5257088,7.34929977 20.4550697,7.1552534 L20.2532436,6.59354023 C20.1826045,6.39949386 19.9807785,6.28715123 19.7789524,6.33821606 L18.4721288,6.59354023 C18.3005766,6.62928562 18.1239789,6.5424754 18.0382028,6.38417441 C17.962518,6.24119288 17.8817876,6.09821135 17.7960115,5.95522981 C17.7051898,5.80203531 17.7152811,5.60798894 17.8313311,5.47011389 L18.7042287,4.45392371 C18.845507,4.3007292 18.8505526,4.07093745 18.7193657,3.91263647 L18.3409419,3.45305297 C18.2097549,3.29475198 17.9827006,3.2590066 17.8111485,3.37645572 L16.6657857,4.07093745 C16.5144161,4.16285415 16.3226814,4.14242822 16.1914945,4.0249791 C16.0703988,3.91774295 15.9442576,3.8105068 15.8181163,3.70837714 C15.6818837,3.5960345 15.6263815,3.40709462 15.691975,3.24368715 L16.1662662,1.98238576 C16.2469966,1.79344588 16.1763575,1.56876061 15.9997597,1.46663094 L15.4851033,1.16534842 C15.3085055,1.06321876 15.0814512,1.10917711 14.9603556,1.27769106 L14.1227775,2.3398396 C14.0218645,2.46750168 13.8755406,2.53388596 13.6938972,2.46750168 C13.6938972,2.46750168 13.4113407,2.35005256 13.1994234,2.2785618 C13.0329169,2.22239048 12.9168669,2.06408949 12.9219125,1.88536258 L12.9420951,0.537250971 C12.9521864,0.327885153 12.8109082,0.144051752 12.6090822,0.108306369 L12.0237866,0.00617670169 C11.8219606,-0.0295686818 11.6251802,0.0929869188 11.5646324,0.29213977 L11.1307064,1.56876061 C11.0752042,1.73727456 10.9137434,1.84961719 10.7371456,1.84451071 C10.6564152,1.84451071 10.5706391,1.83940423 10.4899087,1.83940423 C10.4091783,1.83940423 10.3234022,1.83940423 10.2426718,1.84451071 C10.066074,1.84961719 9.90965882,1.73727456 9.849111,1.56876061 L9.41518501,0.29213977 C9.35463719,0.0929869188 9.1578568,-0.0295686818 8.95603075,0.00617670169 L8.37073522,0.108306369 C8.16890918,0.144051752 8.02763095,0.327885153 8.03772225,0.537250971 L8.05790485,1.88536258 C8.0629505,2.06408949 7.95194618,2.21217751 7.78039404,2.2785618 C7.66434407,2.32452015 7.41206151,2.42154333 7.29096588,2.46750168 C7.14968765,2.51856651 6.98318116,2.47771465 6.84694858,2.31941366 L6.01441615,1.28279754 C5.89332052,1.11428359 5.66626622,1.06832524 5.48966843,1.17045491 L4.97501201,1.47173743 C4.79841422,1.57386709 4.72272946,1.79855236 4.80850553,1.98749224 L5.28279673,3.24879363 C5.34334455,3.41730758 5.29288803,3.60624747 5.15665545,3.71348362 C5.03051418,3.81561329 4.9043729,3.92284944 4.78327727,4.03008559 C4.65209034,4.1475347 4.4603556,4.16796064 4.30898606,4.07604394 L3.17876021,3.37134923 C3.00720807,3.2590066 2.78015377,3.2896455 2.64896684,3.44794648 L2.27054301,3.90752999 C2.13935608,4.06583097 2.14440173,4.3007292 2.28567996,4.44881722 L3.15857761,5.46500741 C3.27462758,5.59777598 3.28976454,5.79692883 3.19389716,5.95012333 C3.1081211,6.08799838 3.02739068,6.23097991 2.95170591,6.37906793 C2.86592984,6.53736892 2.6943777,6.61907265 2.51777991,6.58843375 L1.21095627,6.33310958 C1.00913023,6.28715123 0.807304181,6.39438738 0.736665065,6.58843375 L0.53483902,7.15014692 C0.464199904,7.34419329 0.549975973,7.56377207 0.731619414,7.65568877 L1.89716482,8.30931864 C2.05358001,8.39612886 2.12926478,8.57485577 2.09394522,8.74847621 C2.06367131,8.91188368 2.03339741,9.07018466 2.00816915,9.23359213 C1.98294089,9.41231904 1.84670831,9.5501941 1.67515617,9.580833 L0.35824123,9.7953053 C0.156415185,9.82083771 7.10542736e-15,9.99445815 7.10542736e-15,10.1987175 L7.10542736e-15,10.796176 C7.10542736e-15,11.0055419 0.151369534,11.1791623 0.35824123,11.1995882 L1.67515617,11.4140605 C1.85175396,11.4446994 1.98294089,11.5825745 2.00816915,11.7613014 C2.03339741,11.9247089 2.05862566,12.0881163 2.09394522,12.2464173 C2.12926478,12.4200377 2.04853436,12.5987647 1.89716482,12.6855749 L0.731619414,13.3392047 C0.549975973,13.4311214 0.464199904,13.6507002 0.53483902,13.8447466 L0.736665065,14.4064598 C0.807304181,14.6005061 1.00913023,14.7128488 1.21095627,14.6617839 L2.51777991,14.4064598 C2.68933205,14.3707144 2.86592984,14.4575246 2.95170591,14.6158256 C3.02739068,14.7588071 3.1081211,14.9017887 3.19389716,15.0447702 C3.28471889,15.1979647 3.27462758,15.3920111 3.15857761,15.5298861 L2.28567996,16.5460763 C2.14440173,16.6992708 2.13935608,16.9290625 2.27054301,17.0873635 L2.64896684,17.546947 C2.78015377,17.705248 3.00720807,17.7409934 3.17876021,17.6235443 L4.32412302,16.9290625 C4.47549255,16.8371458 4.66722729,16.8575718 4.79841422,16.9750209 C4.91950985,17.082257 5.04565113,17.1894932 5.17179241,17.2916229 C5.30802499,17.4039655 5.36352715,17.5929054 5.29793369,17.7563129 L4.82364248,19.0176142 C4.74291206,19.2065541 4.81355118,19.4312394 4.99014897,19.5333691 L5.50480538,19.8346516 C5.68140317,19.9367812 5.90845747,19.8908229 6.0295531,19.7223089 L6.87722249,18.6703734 C6.98318116,18.5376048 7.1547333,18.4814335 7.29096588,18.5376048 C7.46251802,18.6090956 7.578568,18.6499474 7.79048534,18.7214382 C7.95699183,18.7776095 8.07304181,18.9359105 8.06799616,19.1146374 L8.04781355,20.462749 C8.03772225,20.6721148 8.17900048,20.8559482 8.38082653,20.8916936 L8.96612206,20.9938233 C9.1679481,21.0295687 9.3647285,20.9070131 9.42527631,20.7078602 L9.85920231,19.4312394 C9.91470447,19.2627254 10.0761653,19.1503828 10.2527631,19.1554893 C10.3334935,19.1554893 10.4192696,19.1605958 10.5,19.1605958 C10.5807304,19.1605958 10.6665065,19.1605958 10.7472369,19.1554893 C10.9238347,19.1503828 11.0802499,19.2627254 11.1407977,19.4312394 L11.5747237,20.7078602 C11.6352715,20.9070131 11.8320519,21.0295687 12.0338779,20.9938233 L12.6191735,20.8916936 C12.8209995,20.8559482 12.9622778,20.6721148 12.9521864,20.462749 L12.9320038,19.1146374 C12.9269582,18.9359105 13.0430082,18.7776095 13.2095147,18.7214382 C13.421432,18.6499474 13.5627102,18.5937761 13.6938972,18.5427113 C13.8250841,18.4967529 13.9865449,18.4916465 14.1126862,18.6499474 L14.9704469,19.7172025 C15.0915425,19.8857164 15.3185968,19.9316748 15.4951946,19.8295451 L16.009851,19.5282626 C16.1864488,19.4261329 16.2621336,19.2014476 16.1763575,19.0125078 L15.7020663,17.7512064 C15.6415185,17.5826924 15.691975,17.3937525 15.8282076,17.2865164 C15.9543489,17.1843867 16.0804901,17.0771506 16.2015858,16.9699144 C16.3327727,16.8524653 16.5245074,16.8320394 16.675877,16.9239561 L17.8212398,17.6184378 C17.9927919,17.7307804 18.2198462,17.7001415 18.3510332,17.5418405 L18.729457,17.082257 C18.8606439,16.9239561 18.8555983,16.6890578 18.71432,16.5409698 L17.8414224,15.5247796 C17.7253724,15.3920111 17.7102355,15.1928582 17.8061028,15.0396637 C17.8918789,14.9017887 17.9726093,14.7588071 18.0482941,14.6107191 C18.1340702,14.4524181 18.3056223,14.3707144 18.4822201,14.4013533 L19.7890437,14.6566775 C19.9908698,14.7026358 20.1926958,14.5953997 20.2633349,14.4013533 L20.465161,13.8396401 C20.5358001,13.6455937 20.450024,13.426015 20.2683806,13.3340983 L19.1028352,12.6804684 C18.94642,12.5936582 18.8707352,12.4149313 18.9060548,12.2413108 C18.9363287,12.0779034 18.9666026,11.9196024 18.9918309,11.7561949 C19.0170591,11.577468 19.1532917,11.4395929 19.3248438,11.408954 L20.6417588,11.1944817 C20.8435848,11.1689493 21,10.9953289 21,10.7910696 L21,10.193611 C20.9899087,9.99956463 20.8385392,9.82083771 20.6316675,9.80041178 L20.6316675,9.80041178 Z M6.77385693,15.6356341 C6.50916367,16.094445 5.88815255,16.1811092 5.50129317,15.8191584 C4.09638277,14.478411 3.2208589,12.5870906 3.2208589,10.4918542 C3.2208589,8.40681353 4.09129251,6.52059097 5.4860224,5.18494147 C5.86779153,4.81789276 6.49389291,4.90455704 6.75858617,5.36336793 L9.60912901,10.2879382 C9.68039258,10.4153857 9.68039258,10.5683226 9.60912901,10.6957701 L6.77385693,15.6356341 Z M17.4991201,12.2254515 C16.7412021,15.4645485 13.8801872,17.8695652 10.472066,17.8695652 C9.76434129,17.8695652 9.07669386,17.7672241 8.43422035,17.5727759 C7.93730724,17.4243813 7.70641832,16.8359197 7.96742319,16.3805017 L10.7631868,11.4220736 C10.8334574,11.2941472 10.9689791,11.2173913 11.1095202,11.2173913 L16.7161055,11.2173913 C17.2381152,11.2173913 17.6195839,11.7086288 17.4991201,12.2254515 Z M16.8410431,9.7826087 L11.1669945,9.7826087 C11.0198143,9.7826087 10.8878597,9.70585284 10.8168072,9.57792642 L7.96963253,4.62973244 C7.7057233,4.17431438 7.93410629,3.58585284 8.43654888,3.43234114 C9.09632197,3.23277592 9.79669649,3.13043478 10.5224469,3.13043478 C13.9684925,3.13043478 16.8613438,5.53545151 17.6276956,8.77454849 C17.7494999,9.29137124 17.3637864,9.7826087 16.8410431,9.7826087 Z" id="形状"></path>
            </g>
            <g id="app" transform="translate(118.000000, 399.000000)" fill="#FFFFFF" fill-rule="nonzero">
                <path d="M9.57200685,0.242150126 C10.1492823,-0.0807167086 10.8500786,-0.0807167086 11.4273541,0.242150126 L20.0093737,5.03964086 C20.6204785,5.38096732 20.9999281,6.03132025 21,6.73751292 L21,16.2620192 C20.9996954,16.9679802 20.6202782,17.6180302 20.0093737,17.9592447 L11.4273541,22.7580286 C10.8502451,23.0806571 10.149755,23.0806571 9.57264596,22.7580286 L0.990626382,17.9605378 C0.379321092,17.6190994 -0.000160727963,16.9684434 5.10689675e-08,16.2620192 L5.10689675e-08,6.7381595 C0.000537131051,6.03243007 0.379922097,5.38268301 0.990626382,5.04158056 L9.57200685,0.241503551 L9.57200685,0.242150126 Z M3.67724419,7.70349291 C3.55425274,7.92905179 3.52449472,8.19507197 3.59452535,8.44295337 C3.66455597,8.69083477 3.82863014,8.90024188 4.05060486,9.02504559 L9.5019252,12.0872904 L9.5019252,18.1949368 C9.5019252,18.7316084 9.92980726,19.1666667 10.4576265,19.1666667 C10.9854458,19.1666667 11.4133279,18.7316084 11.4133279,18.1949368 L11.4133279,12.0872904 L16.8646482,9.02310211 C17.3052473,8.75362444 17.4571905,8.1780038 17.2085079,7.72042631 C16.9598252,7.26284881 16.3996577,7.0873342 15.9408036,7.32322261 L10.4576265,10.4036064 L4.97572373,7.32322261 C4.51370018,7.06388341 3.93238899,7.23441514 3.67724419,7.70414072 L3.67724419,7.70349291 Z" id="形状"></path>
            </g>
        </g>
    </g>
</svg>